<svg width="20.000000" height="22.000000" viewBox="0 0 20 22" fill="none" xmlns="http://www.w3.org/2000/svg" xmlns:xlink="http://www.w3.org/1999/xlink">
	<desc>
			Created with Pixso.
	</desc>
	<defs/>
	<path id="path" d="M14.99 7C14.99 11.01 15.94 13.52 16.85 15L3.14 15C4.05 13.52 4.99 11.01 4.99 7C4.99 5.61 5.55 4.37 6.46 3.46C7.36 2.55 8.61 2 9.99 2C11.38 2 12.62 2.55 13.53 3.46C14.44 4.36 14.99 5.61 14.99 7ZM16.99 7C16.99 5.06 16.21 3.31 14.95 2.04C13.68 0.78 11.93 0 9.99 0C8.06 0 6.31 0.78 5.04 2.04C3.78 3.31 2.99 5.06 2.99 7C2.99 13.12 0.6 15.04 0.43 15.17C-0.02 15.48 -0.14 16.09 0.16 16.55C0.35 16.84 0.67 16.99 0.99 17L18.99 17C19.55 17 19.99 16.55 19.99 16C19.99 15.66 19.83 15.36 19.57 15.17C19.39 15.04 16.99 13.12 16.99 7ZM10.86 19.49C10.72 19.73 10.5 19.89 10.25 19.96C10 20.02 9.73 20 9.49 19.86C9.33 19.76 9.21 19.64 9.13 19.5C8.86 19.02 8.25 18.85 7.77 19.13C7.29 19.4 7.12 20.01 7.4 20.49C7.65 20.93 8.02 21.31 8.49 21.59C9.21 22 10.02 22.09 10.77 21.89C11.51 21.69 12.17 21.21 12.59 20.5C12.87 20.02 12.7 19.41 12.23 19.13C11.75 18.85 11.14 19.02 10.86 19.49Z" fill="#000000" fill-opacity="1.000000" fill-rule="nonzero"/>
</svg>
