<svg width="143.000000" height="50.000000" viewBox="0 0 143 50" fill="none" xmlns="http://www.w3.org/2000/svg" xmlns:xlink="http://www.w3.org/1999/xlink">
	<desc>
			Created with Pixso.
	</desc>
	<defs>
		<linearGradient x1="71.500000" y1="0.000000" x2="71.500000" y2="50.000000" id="paint_linear_2_70_0" gradientUnits="userSpaceOnUse">
			<stop stop-color="#F91818"/>
			<stop offset="1.000000" stop-color="#000000" stop-opacity="0.000000"/>
		</linearGradient>
		<linearGradient x1="56.000000" y1="25.500000" x2="47.999985" y2="44.500019" id="paint_linear_10_16_0" gradientUnits="userSpaceOnUse">
			<stop stop-color="#E90B0B"/>
			<stop offset="1.000000" stop-color="#2A0BEE" stop-opacity="0.662745"/>
		</linearGradient>
	</defs>
	<path id="F cus" d="M6.43 27.23Q8.7 27.23 12.18 26.75Q9.61 36.42 9.61 41.82Q9.61 44.34 9.87 45.87Q10.02 46.66 10.49 47.04Q10.93 47.39 11.64 47.39Q17.11 47.39 18.25 45.17Q18.54 44.59 18.54 43.86Q18.54 37.19 21.66 25.74Q22.15 25.68 22.51 25.68L23.29 25.68L32.4 26.09Q32.92 26.09 33.33 25.87Q34.13 25.43 34.45 24.11Q34.68 23.16 34.98 22.27Q35.29 21.36 35.29 20.99Q35.29 20.33 34.96 20.05Q34.72 19.85 34.32 19.85L23.35 19.67Q25.75 11.94 26.22 8.51L30.85 8.51L38.83 8.57L40.75 8.57Q42.27 8.57 43.16 7.82Q43.78 7.3 44.1 6.42Q44.47 5.33 44.94 4.41Q45.42 3.47 45.42 3.12Q45.42 2.64 45.19 2.35Q44.81 1.86 43.81 1.86L25.81 1.55Q16.74 1.5 10.56 4.38Q5.57 6.7 4.57 10.18Q4.33 11 4.32 11.88Q4.32 13.08 4.74 13.8Q5.16 14.51 5.6 14.52Q5.6 14.52 5.61 14.52Q6.06 14.52 6.66 13.98Q7.26 13.43 8.23 12.48Q9.2 11.55 10.31 10.84Q13.58 8.74 18.06 8.51Q15.6 14.21 13.68 21.05Q9.43 22.19 7.54 23.73Q5.65 25.25 5.65 26.63Q5.65 26.86 5.76 27Q5.94 27.23 6.43 27.23ZM104.52 19.16Q103.99 19.99 103.99 21.17L103.99 22.25Q103.99 22.97 104.02 23.7Q104.05 24.42 104.08 25.17Q104.11 25.91 104.17 26.4Q103.56 31.26 101.88 35.22Q99.91 39.93 97.28 40.33Q97.03 40.37 96.78 40.37Q95.14 40.37 94.5 39.57Q94.09 39.06 94.09 38.22Q94.09 35.51 95.04 32.01Q96.01 28.49 96.58 26.19Q97.15 23.88 96.84 20.93Q96.61 18.61 95.38 17.79Q94.7 17.33 93.72 17.33Q90.25 17.33 88.39 18.78L86.77 32.5Q86.31 32.78 85.65 33.53Q84.61 34.73 83.22 36.15Q81.84 37.56 80.18 38.76Q78.89 39.71 77.5 39.89Q77.12 39.94 76.74 39.93Q74.94 39.89 73.62 39.17Q72.64 38.62 72.14 37.78Q71.67 36.99 71.64 35.93Q71.64 31.44 72.96 28.08Q73.62 26.4 74.6 25.31Q75.5 24.34 76.46 24.26Q76.57 24.26 76.68 24.26Q76.96 24.27 77.23 24.33Q78 24.51 78.66 25.14Q79.16 25.6 79.75 25.8Q80.23 25.97 80.77 25.97Q80.79 25.97 80.8 25.97Q81.68 25.95 82.53 24.71Q83.41 23.45 83.41 21.36Q83.41 19.95 82.72 19.08Q81.63 17.7 78.78 17.7Q76.14 17.7 73.2 19.18Q73.05 19.25 72.91 19.32Q70.15 20.77 67.95 23.28Q65.64 25.91 64.23 29.55Q62.83 33.18 62.83 37.65Q62.83 40.77 64.29 42.86Q64.92 43.77 65.83 44.49Q67.05 45.45 68.44 46.03Q70.45 46.86 72.82 46.86Q76.8 46.86 79.75 45.48Q82.69 44.09 84.58 42.14Q84.79 41.93 84.98 41.72Q85.25 42.71 85.8 43.52Q86.38 44.37 87.28 45Q89.82 46.79 94.57 46.79Q96.09 46.79 97.43 46.28Q98.45 45.89 99.36 45.21Q101 43.97 102.09 42.36Q102.4 41.89 102.67 41.4Q102.91 43.67 103.83 45.18Q104.05 45.53 104.35 45.81Q105.31 46.67 107.05 46.67Q107.17 46.73 107.34 46.73Q109.11 46.73 115.47 43.06Q116.12 43.94 117.12 44.74Q119.94 46.98 125.61 46.98Q131.28 46.98 134.46 44.8Q135.9 43.8 136.68 42.44Q137.64 40.78 137.64 38.57Q137.64 38.21 137.59 37.85Q137.39 36.2 136.23 34.67Q134.83 32.81 133.08 31.01Q134.18 30.64 135.13 30.04Q136.31 29.28 137.26 28.17Q137.87 27.45 138.26 26.63Q138.97 25.14 138.97 23.31Q138.97 21.41 138.1 20.11Q137.65 19.44 136.98 18.93Q135 17.39 130.97 17.43Q128.64 17.45 126.64 18.26Q125.18 18.85 123.9 19.85Q122.39 21.12 121.58 22.74Q120.66 24.58 120.66 26.88Q120.66 28.81 121.44 30.33Q121.63 30.7 121.86 31.04Q123.06 32.81 124.62 34.38Q126.18 35.93 127.77 37.59Q128.23 38.07 128.62 38.6Q129.57 39.89 130.08 41.51Q125.42 41.51 123.19 39.19Q123.13 39.12 123.06 39.05Q122.11 37.97 121.69 36.77Q120.54 33.47 120.12 32.78Q119.99 32.57 119.81 32.42Q119.41 32.1 118.74 32.1Q118.65 32.1 118.56 32.1Q117.05 32.23 115.71 34.44Q115.24 35.21 114.93 36.04Q114.75 36.53 114.62 37.03Q113.74 37.88 112.87 38.64Q111.55 39.77 110.64 39.77Q110.44 39.77 110.31 39.68Q109.98 39.47 109.98 38.76Q109.92 36.59 111.24 30.41Q112.56 24.23 112.56 21.3Q112.56 19.19 112.16 18.18Q112.07 17.92 111.9 17.73Q111.39 17.15 110.23 17.15Q105.82 17.15 104.52 19.16ZM133.14 24.42Q133.14 25.97 130.74 28.55Q127.93 25.43 127.93 23.16Q128.47 23.03 129.33 22.79Q130.21 22.56 131.16 22.56Q131.97 22.56 132.45 22.95Q132.54 23.03 132.63 23.13Q132.95 23.49 133.07 23.91Q133.14 24.15 133.14 24.42Z" fill="#000000" fill-opacity="1.000000" fill-rule="evenodd"/>
	<path id="F cus" d="" fill="url(#paint_linear_2_70_0)" fill-opacity="1.000000" fill-rule="evenodd"/>
	<path id="path" d="M33 17L63 17L63 47L33 47L33 17Z" fill="#000000" fill-opacity="0" fill-rule="nonzero"/>
	<path id="path" d="M45.28 44.2L50.88 34.5L55.3 42.14C53.12 43.71 50.68 44.5 48 44.5C47.06 44.5 46.15 44.39 45.28 44.2ZM42.86 43.4C39.45 41.86 37.19 39.31 36.07 35.75L47.27 35.75L42.86 43.4ZM35.56 33.25C35.18 29.53 36.25 26.29 38.79 23.54L44.39 33.25L35.56 33.25ZM40.69 21.85C42.87 20.28 45.31 19.49 48 19.5C48.93 19.5 49.84 19.6 50.71 19.79L45.11 29.5L40.69 21.85ZM53.13 20.6C56.54 22.13 58.8 24.68 59.92 28.25L48.72 28.25L53.13 20.6ZM60.43 30.75C60.81 34.46 59.74 37.7 57.2 40.45L51.61 30.75L60.43 30.75Z" fill="url(#paint_linear_10_16_0)" fill-opacity="1.000000" fill-rule="nonzero"/>
</svg>
