<svg width="108.838623" height="45.569336" viewBox="0 0 108.839 45.5693" fill="none" xmlns="http://www.w3.org/2000/svg" xmlns:xlink="http://www.w3.org/1999/xlink">
	<desc>
			Created with Pixso.
	</desc>
	<defs>
		<linearGradient x1="62.759178" y1="21.889330" x2="57.000004" y2="35.569328" id="paint_linear_42_12_0" gradientUnits="userSpaceOnUse">
			<stop stop-color="#000000"/>
			<stop offset="1.000000" stop-color="#000000" stop-opacity="0.662745"/>
		</linearGradient>
	</defs>
	<path id="cus" d="M94.72 34.71Q95.64 35.74 97.71 35.74Q98.1 35.74 98.56 35.63Q98.86 35.56 99.15 35.46Q99.31 35.41 99.46 35.35Q99.86 35.48 100.26 35.52Q100.66 35.56 101.01 35.56Q101.87 35.56 102.64 35.29Q103.2 35.09 103.71 34.75Q104.92 33.93 105.84 32.64Q106.03 32.38 106.21 32.1Q106.92 31.05 107.5 29.91Q108.23 28.49 108.8 27.25Q108.86 27.09 108.81 26.96Q108.8 26.91 108.77 26.87Q108.73 26.83 108.68 26.79Q108.59 26.72 108.44 26.72Q108.42 26.72 108.4 26.73Q108.26 26.75 108.13 26.94Q107.3 28.7 106.4 30.29Q105.5 31.87 104.79 32.75Q104.16 33.54 103.37 34.1Q103.28 34.16 103.19 34.22Q102.59 34.62 101.93 34.75Q101.61 34.81 101.27 34.81L101.14 34.81Q101.05 34.81 100.83 34.77L100.53 34.73Q100.85 34.52 101.15 34.27Q102.1 33.49 102.77 32.37Q103.65 30.9 103.65 29.58Q103.65 28.6 103.36 27.71Q103.25 27.36 103.09 27.04Q102.55 25.84 102.06 24.61Q101.85 24.04 101.69 23.32Q101.54 22.59 101.54 21.88Q101.54 21.22 101.72 20.61Q101.78 20.41 101.86 20.21Q101.96 19.98 102.1 19.77Q102.44 19.29 103.03 18.98Q103.15 18.91 103.28 18.88Q103.39 18.85 103.51 18.85Q103.91 18.85 104.44 19.06Q104.66 19.19 104.79 19.19Q104.98 19.19 105.05 19.1Q105.1 19.04 105.1 18.94Q105.1 18.79 105.05 18.66Q104.94 18.42 104.62 18.27Q104.31 18.14 104.02 18.1Q103.74 18.05 103.38 18.05L102.94 18.05Q102.91 18.06 102.87 18.07Q101.78 18.26 100.85 19.42Q99.9 20.6 99.29 21.88Q98.41 23.77 97.38 25.8Q96.35 27.82 95.47 29.54Q95.35 29.55 95.24 29.57Q94.67 29.72 94.25 30.42Q94.06 30.75 93.94 31.1Q93.75 31.65 93.75 32.27Q93.75 32.34 93.75 32.4Q93.41 32.85 93.06 33.23Q91.98 34.43 90.93 34.43Q90.81 34.43 90.69 34.39Q90.44 34.32 90.24 34.07Q89.96 33.72 89.96 32.88Q89.96 32.62 90.01 32.41Q90.05 32.18 90.09 31.74Q90.23 30.99 90.71 29.81Q91.2 28.61 91.83 27.27Q92.48 25.93 93.05 24.74Q93.74 23.33 94.16 22.57Q94.58 21.79 95.02 21.33Q95.46 20.87 96.12 20.34L93.7 20.34Q92.95 20.34 92.48 20.7Q92.18 20.93 91.98 21.31Q91.15 23.03 90.07 25.19Q89 27.34 87.8 29.37Q86.62 31.39 85.39 32.84Q83.89 34.55 82.84 34.55Q82.53 34.55 82.32 34.41Q81.86 34.1 81.86 33.1Q81.86 32.48 82.03 31.76Q82.22 31.03 82.79 29.8Q83.1 29.14 83.56 28.17Q84.02 27.21 84.48 26.26Q84.95 25.32 85.25 24.7L85.56 24.08Q86.44 22.28 87.03 21.6Q87.63 20.91 88.38 20.34L85.65 20.34Q84.95 20.34 84.5 20.68Q84.18 20.91 83.98 21.31Q83.5 22.28 82.83 23.53Q82.17 24.78 81.52 26.14Q81.34 26.58 81.11 26.98Q80.9 27.38 80.72 27.73Q80.66 27.86 80.64 27.99Q80.64 28.04 80.64 28.09Q80.64 28.17 80.67 28.24Q80.7 28.28 80.75 28.32Q80.11 29.51 79.38 30.73Q78.31 32.52 76.92 33.74Q76.38 34.21 75.75 34.5Q74.77 34.95 73.59 34.95Q72.66 34.95 72.08 34.5Q71.79 34.27 71.59 33.92Q71.51 33.78 71.44 33.63Q71 32.7 71 31.56Q71 30.28 71.44 28.95Q71.88 27.6 72.43 26.49Q72.98 25.36 73.38 24.83Q74.34 23.43 75.64 22.21Q76.94 21 78.12 21Q78.63 21 78.9 21.25Q79.19 21.53 79.19 22.1Q79.19 22.63 79 23.16Q78.83 23.73 78.44 24.35Q78.04 24.96 77.68 25.4Q77.84 25.55 78.03 25.62Q78.16 25.66 78.31 25.66Q79.05 25.66 79.8 24.81Q80.55 23.95 80.64 23.07Q80.77 21.99 80.33 21.24Q80.2 21.02 80.01 20.83Q80.01 20.82 80.01 20.82Q79.23 19.99 77.55 19.99Q77.46 19.99 77.37 19.99Q75.89 20.04 74.43 20.93Q72.89 21.88 71.61 23.6Q70.38 25.22 69.48 27.42Q68.57 29.62 68.57 31.56Q68.57 32.85 69.11 33.84Q69.31 34.21 69.58 34.53Q70.6 35.74 73.11 35.74Q75.58 35.74 77.14 34.64Q78.52 33.67 79.54 32.09Q79.53 32.1 79.53 32.11Q79.49 32.43 79.49 32.75Q79.49 33.93 79.99 34.53Q80.39 35 80.9 35.24Q81.03 35.3 81.18 35.35Q81.86 35.56 82.35 35.56Q82.36 35.56 82.38 35.56Q83.47 35.55 84.55 34.71Q85.65 33.85 86.62 32.52Q87.59 31.2 88.34 29.89Q87.9 31.26 87.9 32.44Q87.9 33.93 88.6 34.75Q88.94 35.14 89.37 35.34Q89.83 35.56 90.4 35.56Q90.76 35.56 91.11 35.49Q91.95 35.31 92.69 34.71Q93.36 34.16 93.96 33.43Q94.18 34.04 94.65 34.62Q94.69 34.66 94.72 34.71ZM97.4 27.41Q97.47 27.3 97.51 27.2Q97.52 27.18 97.53 27.16Q98.28 25.7 99.02 24.15Q99.77 22.59 100.34 21.4Q100.3 21.62 100.28 21.87Q100.26 22.1 100.26 22.41Q100.26 23.91 100.61 25.84Q100.97 27.78 100.97 29.5Q100.97 31.43 100.37 32.62Q99.77 33.8 99.02 34.43Q99 34.41 98.97 34.4Q98.18 34.04 97.64 33.13Q97.39 32.69 97.26 32.23Q97.11 31.68 97.13 31.07Q97.17 30.24 96.95 29.96Q96.74 29.68 96.5 29.65Q96.49 29.65 96.49 29.65L96.32 29.63Q96.95 28.41 97.39 27.44Q97.4 27.42 97.4 27.41ZM97.83 34.97Q97.61 35.04 97.36 35.04Q96.8 35.04 96.42 34.78Q96.25 34.67 96.12 34.51Q95.93 34.29 95.82 34.02Q95.68 33.68 95.68 33.28Q95.68 33.09 95.71 32.91Q95.83 32.15 96.48 31.47Q96.56 32.75 97.07 33.57Q97.57 34.37 98.24 34.86Q98.06 34.91 97.83 34.97Z" fill="#000000" fill-opacity="1.000000" fill-rule="evenodd"/>
	<path id="path" d="M55.04 35.35L59.07 28.36L62.25 33.87C60.68 35 58.93 35.57 57 35.56C56.32 35.56 55.67 35.49 55.04 35.35ZM53.3 34.77C50.85 33.66 49.22 31.83 48.41 29.26L56.48 29.26L53.3 34.77ZM48.04 27.46C47.77 24.79 48.54 22.46 50.37 20.48L54.4 27.46L48.04 27.46ZM51.74 19.26C53.31 18.13 55.06 17.56 57 17.56C57.67 17.56 58.32 17.64 58.95 17.78L54.92 24.76L51.74 19.26ZM60.69 18.36C63.14 19.46 64.77 21.3 65.58 23.86L57.51 23.86L60.69 18.36ZM65.95 25.66C66.22 28.34 65.45 30.67 63.62 32.65L59.59 25.66L65.95 25.66Z" fill="url(#paint_linear_42_12_0)" fill-opacity="1.000000" fill-rule="nonzero"/>
	<path id="F" d="M9.23 37.68Q12.53 39.33 16.81 39.33Q21.07 39.33 24.28 38.14Q27.5 36.95 29.85 34.9Q31.82 33.19 33.33 31.14Q33.62 30.74 33.9 30.33Q35.59 27.8 36.78 25.12Q37.97 22.44 38.89 19.92Q39.55 20.01 40.47 20.06Q41.4 20.1 42.42 20.1Q44.08 20.1 45.64 20.02Q47.21 19.92 47.86 19.75Q48.87 19.48 48.88 19.19L48.88 19.18Q48.88 19.15 48.87 19.12Q48.78 18.87 48 18.87L47.73 18.87Q47.29 18.87 46.7 18.89Q46.11 18.91 45.4 18.91Q44 18.91 42.38 18.85Q40.78 18.78 39.42 18.6Q40.07 17.15 40.89 15.09Q41.71 13.01 42.8 10.91Q43.91 8.79 45.32 7.21Q45.76 7.39 47.23 8.14Q48.7 8.88 50.9 9.72Q53.1 10.55 55.65 11Q55.96 11.04 56.24 11.06Q56.53 11.08 56.8 11.08Q58.6 11.08 59.87 10.26Q60.93 9.59 61.24 8.67Q61.3 8.47 61.33 8.27Q61.38 8.14 61.38 8.01L61.38 7.74Q61.38 7.34 61.22 7.27Q61.19 7.26 61.15 7.26Q60.85 7.26 60.5 8.08Q60.33 8.43 60.07 8.69Q59.71 9.05 59.17 9.23Q58.25 9.54 57.11 9.54Q55.75 9.54 54.14 9.21Q52.54 8.88 50.95 8.35Q49.37 7.83 48.07 7.3Q46.77 6.77 45.97 6.38Q46.37 6.02 46.9 5.72Q47.26 5.51 47.65 5.44Q47.82 5.41 48 5.41Q48.22 5.41 48.42 5.46Q48.54 5.49 48.66 5.54Q49.01 5.94 49.18 5.94Q49.27 5.94 49.33 5.9Q49.45 5.81 49.45 5.54Q49.45 5.51 49.45 5.49Q49.44 5.2 49.25 4.93Q49.2 4.85 49.15 4.79Q48.96 4.58 48.66 4.49Q48.13 4.35 47.73 4.35Q46.78 4.35 46.12 4.79Q46.02 4.85 45.93 4.93Q45.23 5.5 44.92 5.85Q42.9 4.57 39.82 3.14Q36.73 1.71 33.08 0.74Q30.31 0 28.06 0Q25.12 0 22.79 0.94Q20.46 1.89 18.8 3.41Q17.15 4.93 16.27 6.75Q15.4 8.57 15.4 10.29Q15.4 11.11 15.61 11.87Q15.78 12.49 16.1 13.08Q16.17 13.21 16.24 13.33Q16.95 14.46 18.26 15.22Q18.38 15.29 18.51 15.35Q19.2 15.69 19.95 15.88Q20.47 16.01 21 16.06Q21.39 16.1 21.78 16.1Q22.41 16.1 23.02 16Q24.54 15.75 25.97 14.89Q26.92 14.32 27.57 13.5Q28.29 12.6 28.63 11.39Q28.77 11 28.77 10.77Q28.77 10.55 28.68 10.49Q28.64 10.47 28.59 10.47Q28.42 10.47 28.15 10.8Q28.06 10.92 28 11.04Q27.89 11.28 27.89 11.56Q27.89 12 27.08 12.86Q26.26 13.72 24.9 14.43Q24.71 14.53 24.53 14.61Q23.31 15.13 21.87 15.13Q21.11 15.13 20.3 14.92Q19.49 14.69 18.7 14.21Q18.28 13.95 17.99 13.59Q17.38 12.82 17.38 11.56Q17.38 10.16 18.21 8.56Q19.05 6.95 20.63 5.52Q22.21 4.09 24.5 3.16Q26.79 2.24 29.7 2.24Q30.31 2.24 30.96 2.28Q31.63 2.33 32.29 2.41Q35.23 2.81 37.95 3.82Q38.25 3.93 38.54 4.04Q41.54 5.23 44.35 6.63Q44.04 6.99 43.29 8.12Q42.54 9.23 41.62 10.87Q40.7 12.49 39.73 14.38Q38.76 16.27 37.97 18.16Q37 17.99 36 17.88Q35.01 17.77 34.05 17.77Q31.76 17.77 29.91 18.61Q29.77 18.68 29.63 18.75Q27.98 19.62 27.01 21.77Q26.91 21.99 26.94 22.18Q26.95 22.22 26.97 22.26Q27.03 22.42 27.14 22.46Q27.18 22.48 27.23 22.48Q27.45 22.48 27.71 22.17Q28.06 21.67 28.52 21.3Q29.03 20.88 29.66 20.61Q30.88 20.1 32.26 19.95Q33.65 19.79 34.84 19.79Q35.64 19.79 36.29 19.81Q36.96 19.84 37.3 19.84Q35.77 23.36 33.74 26.51Q31.72 29.64 29.18 32.07Q26.92 34.24 24.24 35.57Q23.93 35.73 23.62 35.87Q23.21 36.06 22.8 36.22Q20.11 37.26 17.02 37.26Q14.78 37.26 12.34 36.51Q11 36.1 9.77 35.48Q8.76 34.97 7.83 34.31Q6.83 33.61 6.02 32.74Q5.14 31.81 4.46 30.69Q4.33 30.47 4.22 30.24Q3.16 28.22 3.16 25.65Q3.16 25.16 3.21 24.64Q3.25 24.1 3.34 23.57Q3.73 21.33 4.83 20.19Q5.94 19.04 6.77 18.47Q7.51 17.99 8.02 17.57Q8.38 17.28 8.34 17.19Q8.32 17.15 8.22 17.15Q8.09 17.15 7.61 17.28Q6.95 17.46 6.02 18.08Q5.1 18.7 4.26 19.66Q4.13 19.81 4.01 19.97Q3.36 20.83 2.99 21.91Q2.2 24.33 2.2 26.61Q2.2 29.14 3.09 31.29Q3.49 32.25 4.07 33.15Q4.52 33.84 5.05 34.46Q6.73 36.42 9.23 37.68Z" fill="#000000" fill-opacity="1.000000" fill-rule="evenodd"/>
</svg>
