<svg width="50.000000" height="50.000000" viewBox="0 0 50 50" fill="none" xmlns="http://www.w3.org/2000/svg" xmlns:xlink="http://www.w3.org/1999/xlink">
	<desc>
			Created with Pixso.
	</desc>
	<defs/>
	<path id="path" d="M3.12 28.12L21.87 28.12L21.87 46.87C21.87 48.6 23.27 50 25 50C26.72 50 28.12 48.6 28.12 46.87L28.12 28.12L46.87 28.12C48.6 28.12 50 26.72 50 25C50 23.27 48.6 21.87 46.87 21.87L28.12 21.87L28.12 3.12C28.12 1.39 26.72 0 25 0C23.27 0 21.87 1.39 21.87 3.12L21.87 21.87L3.12 21.87C1.39 21.87 0 23.27 0 25C0 26.72 1.39 28.12 3.12 28.12Z" fill="#7A7A7A" fill-opacity="1.000000" fill-rule="nonzero"/>
</svg>
