<svg width="18.014038" height="18.000000" viewBox="0 0 18.014 18" fill="none" xmlns="http://www.w3.org/2000/svg" xmlns:xlink="http://www.w3.org/1999/xlink">
	<desc>
			Created with Pixso.
	</desc>
	<defs>
		<linearGradient x1="14.766193" y1="4.319994" x2="9.007019" y2="17.999992" id="paint_linear_42_12_0" gradientUnits="userSpaceOnUse">
			<stop stop-color="#000000"/>
			<stop offset="1.000000" stop-color="#000000" stop-opacity="0.662745"/>
		</linearGradient>
	</defs>
	<path id="path" d="M7.05 17.78L11.08 10.8L14.26 16.3C12.69 17.43 10.94 18 9 18C8.33 18 7.68 17.92 7.05 17.78ZM5.3 17.2C2.85 16.1 1.22 14.26 0.42 11.7L8.48 11.7L5.3 17.2ZM0.05 9.89C-0.22 7.22 0.55 4.89 2.37 2.91L6.4 9.89L0.05 9.89ZM3.75 1.69C5.31 0.56 7.07 -0.01 9 0C9.67 0 10.33 0.07 10.96 0.21L6.92 7.2L3.75 1.69ZM12.7 0.79C15.15 1.89 16.78 3.73 17.59 6.29L9.52 6.29L12.7 0.79ZM17.96 8.1C18.23 10.77 17.45 13.1 15.63 15.08L11.6 8.1L17.96 8.1Z" fill="url(#paint_linear_42_12_0)" fill-opacity="1.000000" fill-rule="nonzero"/>
</svg>
