<svg width="25.000000" height="23.000000" viewBox="0 0 25 23" fill="none" xmlns="http://www.w3.org/2000/svg" xmlns:xlink="http://www.w3.org/1999/xlink">
	<desc>
			Created with Pixso.
	</desc>
	<defs>
		<clipPath id="clip2_81">
			<rect id="home-outline" width="25.000000" height="23.000000" fill="white" fill-opacity="0"/>
		</clipPath>
	</defs>
	<g clip-path="url(#clip2_81)">
		<path id="path" d="M24.04 9.77C20.23 6.56 13.3 0.58 13.23 0.52L12.5 -0.11L11.76 0.52C11.69 0.58 4.76 6.56 0.89 9.8C0.4 10.24 0.12 10.86 0.12 11.5C0.12 12.74 1.13 13.75 2.37 13.75L3.5 13.75L3.5 20.5C3.5 21.74 4.5 22.75 5.75 22.75L19.25 22.75C20.49 22.75 21.5 21.74 21.5 20.5L21.5 13.75L22.62 13.75C23.86 13.75 24.87 12.74 24.87 11.5C24.87 10.82 24.56 10.19 24.04 9.77ZM14.75 20.5L10.25 20.5L10.25 14.87L14.75 14.87L14.75 20.5ZM19.25 11.5L19.25 20.5C19.25 20.5 15.87 20.5 15.87 20.5L15.87 13.75L9.12 13.75L9.12 20.5L5.75 20.5L5.75 11.5L2.37 11.5C5.48 8.89 10.6 4.49 12.5 2.86C14.39 4.49 19.51 8.89 22.62 11.5C22.62 11.5 19.25 11.5 19.25 11.5Z" fill="#000000" fill-opacity="1.000000" fill-rule="nonzero"/>
	</g>
</svg>
