<svg width="27.000000" height="27.000000" viewBox="0 0 27 27" fill="none" xmlns="http://www.w3.org/2000/svg" xmlns:xlink="http://www.w3.org/1999/xlink">
	<desc>
			Created with Pixso.
	</desc>
	<defs>
		<clipPath id="clip2_96">
			<rect id="logout" width="27.000000" height="27.000000" fill="white" fill-opacity="0"/>
		</clipPath>
	</defs>
	<g clip-path="url(#clip2_96)">
		<path id="path" d="M4.48 5.64L4.48 21.35L13.5 21.35L13.5 23.62L4.48 23.62C3.88 23.62 3.36 23.39 2.92 22.94C2.48 22.48 2.26 21.95 2.26 21.35L2.26 5.64C2.26 5.04 2.48 4.51 2.92 4.06C3.36 3.6 3.88 3.37 4.48 3.37L13.5 3.37L13.5 5.64L4.48 5.64ZM19.14 7.85L24.73 13.49L19.14 19.14L17.56 17.5L20.46 14.6L9.01 14.6L9.01 12.39L20.46 12.39L17.56 9.43L19.14 7.85Z" fill="#000000" fill-opacity="1.000000" fill-rule="nonzero"/>
	</g>
</svg>
