<svg width="24.000000" height="24.000000" viewBox="0 0 24 24" fill="none" xmlns="http://www.w3.org/2000/svg" xmlns:xlink="http://www.w3.org/1999/xlink">
	<desc>
			Created with Pixso.
	</desc>
	<defs/>
	<path id="path" d="M11.99 2C6.42 2 1.71 5.65 1.71 10C1.71 12.32 3.05 14.54 5.37 16.07L6.53 16.85L6.17 18.35C5.91 19.46 5.58 20.32 5.23 21.04C6.58 20.39 7.82 19.5 8.91 18.37L9.49 17.78L10.25 17.87C10.83 17.95 11.42 18 11.99 18C17.57 18 22.28 14.34 22.28 10C22.28 5.65 17.57 2 11.99 2ZM23.99 10C23.99 15.53 18.62 20 11.99 20C11.34 20 10.68 19.95 10.05 19.87C8.3 21.68 6.21 22.96 3.89 23.65C3.41 23.81 2.89 23.92 2.36 24C2.1 24 1.79 23.75 1.72 23.4C1.66 23.01 1.88 22.76 2.08 22.48C2.93 21.37 3.89 20.43 4.52 17.82C1.76 16 0 13.17 0 10C0 4.46 5.37 0 12 0C18.62 0 23.99 4.46 23.99 10Z" fill="#000000" fill-opacity="1.000000" fill-rule="nonzero"/>
</svg>
