<svg width="207.375000" height="177.750183" viewBox="0 0 207.375 177.75" fill="none" xmlns="http://www.w3.org/2000/svg" xmlns:xlink="http://www.w3.org/1999/xlink">
	<desc>
			Created with Pixso.
	</desc>
	<defs>
		<linearGradient x1="181.187546" y1="19.875053" x2="15.687515" y2="167.375183" id="paint_linear_3_11_0" gradientUnits="userSpaceOnUse">
			<stop stop-color="#E82A8C"/>
			<stop offset="1.000000" stop-color="#3D00FF" stop-opacity="0.407843"/>
		</linearGradient>
		<linearGradient x1="48.191536" y1="101.367203" x2="159.184616" y2="101.367203" id="paint_linear_3_17_0" gradientUnits="userSpaceOnUse">
			<stop stop-color="#FF71E6"/>
			<stop offset="0.260000" stop-color="#F659E7"/>
			<stop offset="0.750000" stop-color="#E632E8"/>
			<stop offset="1.000000" stop-color="#E023E8"/>
		</linearGradient>
		<linearGradient x1="53.191208" y1="100.367851" x2="155.184845" y2="100.367851" id="paint_linear_3_19_0" gradientUnits="userSpaceOnUse">
			<stop stop-color="#FF71E6"/>
			<stop offset="0.260000" stop-color="#F659E7"/>
			<stop offset="0.750000" stop-color="#E632E8"/>
			<stop offset="1.000000" stop-color="#E023E8"/>
		</linearGradient>
		<linearGradient x1="56.190956" y1="101.368347" x2="151.185028" y2="101.368347" id="paint_linear_4_21_0" gradientUnits="userSpaceOnUse">
			<stop stop-color="#FF71E6"/>
			<stop offset="0.260000" stop-color="#F659E7"/>
			<stop offset="0.750000" stop-color="#E632E8"/>
			<stop offset="1.000000" stop-color="#E023E8"/>
		</linearGradient>
	</defs>
	<path id="path" d="M170.34 29.62L164.68 29.62C161.62 29.63 159.42 28.26 158.06 25.52L151.43 12.27C147.36 4.06 140.73 -0.04 131.56 0L75.81 0C66.63 -0.04 60.01 4.06 55.93 12.27L49.27 25.52C47.92 28.25 45.73 29.61 42.68 29.62L37.03 29.62C32.12 29.63 27.4 30.57 22.86 32.45C18.33 34.33 14.33 37.01 10.85 40.48C7.38 43.95 4.71 47.95 2.83 52.49C0.94 57.02 0 61.74 0 66.65L0 140.71C0 145.62 0.94 150.34 2.83 154.88C4.71 159.41 7.38 163.42 10.85 166.89C14.33 170.36 18.33 173.03 22.86 174.91C27.4 176.8 32.12 177.74 37.03 177.75L170.34 177.75C175.25 177.74 179.97 176.8 184.5 174.91C189.04 173.03 193.04 170.36 196.51 166.89C199.98 163.42 202.66 159.41 204.54 154.88C206.42 150.34 207.36 145.62 207.37 140.71L207.37 66.65C207.36 61.74 206.42 57.02 204.54 52.49C202.66 47.95 199.98 43.95 196.51 40.48C193.04 37.01 189.04 34.33 184.5 32.45C179.97 30.57 175.25 29.63 170.34 29.62ZM192.56 140.71C192.56 146.85 190.39 152.09 186.05 156.42C181.71 160.76 176.47 162.93 170.34 162.93L37.03 162.93C30.89 162.93 25.65 160.76 21.32 156.42C16.98 152.09 14.81 146.85 14.81 140.71L14.81 66.65C14.81 60.52 16.98 55.28 21.32 50.94C25.65 46.6 30.89 44.43 37.03 44.43L42.68 44.43C51.86 44.46 58.48 40.37 62.56 32.15L69.22 18.9C70.57 16.18 72.76 14.81 75.81 14.81L131.56 14.81C134.62 14.8 136.82 16.16 138.18 18.9L144.81 32.15C148.88 40.37 155.51 44.46 164.68 44.43L170.34 44.43C176.47 44.43 181.71 46.6 186.05 50.94C190.39 55.28 192.56 60.52 192.56 66.65L192.56 140.71Z" fill="url(#paint_linear_3_11_0)" fill-opacity="1.000000" fill-rule="nonzero"/>
	<path id="path" d="M103.81 150.37C103.07 150.36 102.36 150.07 101.83 149.57C101.83 149.57 59.02 108.37 58 107.15C42.43 90.77 47.45 72.05 58.7 61.64C69.49 51.59 87.86 47.44 103.71 60.97C108.23 56.87 113.87 54.11 119.96 53.03C126.06 51.95 132.34 52.6 138.06 54.88C143.19 56.79 147.75 59.91 151.31 63.96C154.88 68.01 157.34 72.85 158.47 78.06C159.61 83.26 159.38 88.66 157.81 93.76C156.24 98.86 153.37 103.49 149.48 107.24L105.8 149.57C105.27 150.08 104.55 150.36 103.81 150.37ZM81.62 57.93C74.51 58.02 67.7 60.75 62.61 65.55C53.21 74.2 49.15 89.77 62.14 103.46C62.35 103.64 95.27 135.53 103.71 143.78L145.49 103.38C148.05 100.92 150.08 97.99 151.46 94.77C152.84 91.54 153.55 88.09 153.54 84.6C153.61 79.24 151.96 74 148.82 69.59C145.68 65.18 141.21 61.83 136.02 59.98C130.91 57.94 125.27 57.48 119.88 58.67C114.49 59.86 109.62 62.64 105.93 66.63C105.68 66.91 105.37 67.13 105.03 67.3C104.68 67.46 104.3 67.55 103.92 67.57C103.54 67.58 103.16 67.52 102.8 67.39C102.44 67.26 102.11 67.07 101.83 66.81C99.26 64.08 96.14 61.89 92.67 60.36C89.19 58.83 85.43 58.01 81.62 57.93Z" fill="url(#paint_linear_3_17_0)" fill-opacity="1.000000" fill-rule="nonzero"/>
	<path id="path" d="M104.3 145.37C103.62 145.36 102.97 145.1 102.48 144.64C102.48 144.64 63.14 106.8 62.21 105.68C47.9 90.63 52.51 73.45 62.84 63.88C72.76 54.65 89.64 50.84 104.21 63.26C108.36 59.5 113.55 56.97 119.14 55.98C124.74 54.99 130.52 55.58 135.78 57.68C140.49 59.43 144.67 62.3 147.95 66.01C151.23 69.73 153.49 74.18 154.53 78.96C155.57 83.74 155.36 88.7 153.92 93.38C152.48 98.06 149.84 102.32 146.26 105.76L106.13 144.64C105.64 145.1 104.98 145.36 104.3 145.37ZM83.91 60.47C77.37 60.55 71.12 63.06 66.44 67.48C57.8 75.42 54.07 89.71 66.01 102.29C66.2 102.45 96.45 131.74 104.21 139.32L142.6 102.22C144.95 99.96 146.82 97.27 148.08 94.31C149.35 91.35 150 88.17 150 84.96C150.06 80.05 148.54 75.23 145.66 71.19C142.77 67.14 138.66 64.05 133.89 62.36C129.2 60.49 124.02 60.07 119.07 61.16C114.12 62.25 109.64 64.8 106.25 68.46C106.02 68.72 105.73 68.93 105.42 69.08C105.1 69.23 104.75 69.31 104.4 69.33C104.05 69.34 103.7 69.29 103.37 69.17C103.04 69.05 102.74 68.87 102.48 68.63C100.12 66.13 97.25 64.11 94.06 62.71C90.87 61.31 87.41 60.55 83.91 60.47Z" fill="url(#paint_linear_3_19_0)" fill-opacity="1.000000" fill-rule="nonzero"/>
	<path id="path" d="M103.79 143.37C103.16 143.36 102.55 143.11 102.1 142.68C102.1 142.68 65.46 107.37 64.59 106.33C51.26 92.28 55.56 76.24 65.18 67.31C74.42 58.7 90.14 55.14 103.71 66.74C107.57 63.22 112.4 60.86 117.62 59.94C122.83 59.01 128.21 59.57 133.11 61.53C137.5 63.16 141.39 65.83 144.45 69.3C147.5 72.77 149.6 76.93 150.58 81.39C151.55 85.85 151.35 90.48 150.01 94.85C148.66 99.21 146.21 103.19 142.88 106.4L105.49 142.68C105.04 143.12 104.43 143.37 103.79 143.37ZM84.8 64.13C78.71 64.21 72.89 66.55 68.53 70.67C60.48 78.08 57.01 91.42 68.13 103.16C68.3 103.31 96.48 130.65 103.71 137.72L139.47 103.1C141.65 100.99 143.39 98.48 144.57 95.71C145.75 92.95 146.36 89.98 146.35 86.99C146.41 82.4 145 77.91 142.31 74.13C139.63 70.35 135.8 67.48 131.35 65.89C126.98 64.15 122.16 63.75 117.55 64.77C112.94 65.79 108.76 68.18 105.61 71.59C105.39 71.83 105.13 72.03 104.83 72.16C104.54 72.3 104.21 72.38 103.89 72.4C103.56 72.41 103.23 72.36 102.92 72.25C102.62 72.14 102.34 71.97 102.1 71.75C99.9 69.41 97.23 67.53 94.25 66.22C91.28 64.91 88.06 64.2 84.8 64.13Z" fill="url(#paint_linear_4_21_0)" fill-opacity="1.000000" fill-rule="nonzero"/>
</svg>
