<svg width="20.000000" height="23.000000" viewBox="0 0 20 23" fill="none" xmlns="http://www.w3.org/2000/svg" xmlns:xlink="http://www.w3.org/1999/xlink">
	<desc>
			Created with Pixso.
	</desc>
	<defs>
		<clipPath id="clip2_79">
			<rect id="bookmark-o" width="20.000000" height="23.000000" fill="white" fill-opacity="0"/>
		</clipPath>
	</defs>
	<g clip-path="url(#clip2_79)">
		<path id="path" d="M18 1.85L2 1.85L2 20.57L10 13.17L11.39 14.45L18 20.57L18 1.85ZM18.18 -0.08C18.42 -0.08 18.65 -0.03 18.87 0.06C19.56 0.32 20 0.93 20 1.61L20 21.03C20 21.71 19.56 22.33 18.87 22.58C18.65 22.67 18.42 22.7 18.18 22.7C17.7 22.7 17.25 22.54 16.89 22.22L10 15.83L3.1 22.22C2.75 22.54 2.29 22.72 1.81 22.72C1.57 22.72 1.34 22.67 1.12 22.58C0.43 22.33 -0.01 21.71 -0.01 21.03L-0.01 1.61C-0.01 0.93 0.43 0.32 1.12 0.06C1.34 -0.03 1.57 -0.08 1.81 -0.08L18.18 -0.08Z" fill="#000000" fill-opacity="1.000000" fill-rule="nonzero"/>
	</g>
</svg>
