<svg width="24.000000" height="24.000000" viewBox="0 0 24 24" fill="none" xmlns="http://www.w3.org/2000/svg" xmlns:xlink="http://www.w3.org/1999/xlink">
	<desc>
			Created with Pixso.
	</desc>
	<defs>
		<clipPath id="clip2_83">
			<rect id="settings" width="24.000000" height="24.000000" fill="white" fill-opacity="0"/>
		</clipPath>
	</defs>
	<g clip-path="url(#clip2_83)">
		<path id="path" d="M16 12C16 10.89 15.55 9.89 14.82 9.17C14.1 8.45 13.1 8 12 8C10.89 8 9.89 8.44 9.17 9.17C8.45 9.89 8 10.89 8 12C8 13.1 8.44 14.1 9.17 14.82C9.89 15.55 10.89 16 12 16C13.1 16 14.1 15.55 14.82 14.82C15.55 14.1 16 13.1 16 12ZM14 12C14 12.55 13.77 13.05 13.41 13.41C13.05 13.77 12.55 14 12 14C11.44 14 10.94 13.77 10.58 13.41C10.22 13.05 10 12.55 10 12C10 11.44 10.22 10.94 10.58 10.58C10.94 10.22 11.44 10 12 10C12.55 10 13.05 10.22 13.41 10.58C13.77 10.94 14 11.44 14 12ZM20.31 15.4C20.36 15.29 20.42 15.21 20.5 15.14C20.61 15.05 20.75 15 20.91 15C21.73 15 22.58 14.66 23.12 14.12C23.66 13.57 24 12.82 24 12C24 11.17 23.66 10.42 23.12 9.87C22.57 9.33 21.82 9 21 9L20.84 9C20.73 8.99 20.62 8.97 20.53 8.92C20.4 8.85 20.3 8.75 20.24 8.61C20.21 8.55 20.19 8.41 20.18 8.35C20.2 8.02 20.26 7.9 20.35 7.8C20.94 7.22 21.29 6.39 21.29 5.62C21.29 4.85 21 4.08 20.41 3.5C19.82 2.91 19.05 2.62 18.29 2.62C17.52 2.62 16.75 2.91 16.17 3.5C16.08 3.58 15.94 3.68 15.83 3.71C15.69 3.75 15.54 3.74 15.4 3.68C15.29 3.63 15.21 3.57 15.14 3.49C15.05 3.38 15 3.24 15 3.09C15 2.26 14.66 1.42 14.12 0.87C13.57 0.33 12.82 0 12 0C11.17 0 10.42 0.33 9.87 0.87C9.33 1.42 9 2.17 9 3L9 3.15C8.99 3.26 8.97 3.37 8.92 3.46C8.85 3.59 8.75 3.69 8.61 3.75C8.55 3.78 8.41 3.8 8.35 3.81C8.02 3.79 7.9 3.73 7.8 3.64C7.22 3.05 6.39 2.7 5.62 2.7C4.85 2.7 4.08 2.99 3.5 3.58C2.91 4.17 2.62 4.94 2.62 5.7C2.62 6.47 2.91 7.24 3.5 7.82C3.58 7.91 3.68 8.05 3.71 8.16C3.75 8.3 3.74 8.45 3.68 8.59C3.64 8.7 3.55 8.85 3.47 8.92C3.36 9.01 3.22 9.07 3.09 9.07C2.26 9.07 1.41 9.41 0.87 9.95C0.33 10.5 0 11.25 0 12.08C0 12.9 0.33 13.66 0.87 14.2C1.42 14.74 2.17 15.08 3 15.08L3.15 15.08C3.26 15.08 3.37 15.1 3.46 15.15C3.59 15.22 3.7 15.33 3.76 15.47C3.78 15.53 3.8 15.58 3.81 15.64C3.79 15.97 3.73 16.09 3.64 16.19C3.05 16.77 2.7 17.61 2.7 18.37C2.7 19.14 2.99 19.91 3.58 20.49C4.17 21.08 4.94 21.37 5.7 21.37C6.47 21.37 7.24 21.08 7.82 20.49C7.91 20.41 8.05 20.31 8.16 20.28C8.3 20.24 8.45 20.25 8.59 20.31C8.7 20.35 8.85 20.44 8.92 20.52C9.01 20.63 9.07 20.77 9.08 20.9C9.08 21.73 9.41 22.58 9.95 23.12C10.5 23.66 11.25 24 12.08 24C12.9 24 13.66 23.66 14.2 23.12C14.74 22.57 15.08 21.82 15.08 21L15.08 20.84C15.08 20.73 15.1 20.62 15.15 20.53C15.22 20.4 15.33 20.29 15.47 20.23C15.53 20.21 15.58 20.19 15.64 20.18C15.97 20.2 16.09 20.26 16.19 20.35C16.77 20.94 17.61 21.29 18.37 21.29C19.14 21.29 19.91 21 20.49 20.41C21.08 19.82 21.37 19.05 21.37 18.29C21.37 17.52 21.08 16.75 20.49 16.17C20.41 16.08 20.31 15.94 20.28 15.83C20.24 15.69 20.25 15.54 20.31 15.4ZM18.39 9.3C18.38 9.1 18.35 9 18.32 8.92C18.32 8.96 18.32 9.08 18.32 9.12C18.34 9.18 18.37 9.24 18.39 9.3C18.64 9.88 19.08 10.42 19.6 10.69C19.98 10.89 20.39 10.99 20.82 11L21 11C21.27 11 21.52 11.11 21.7 11.29C21.88 11.47 22 11.72 22 12C22 12.27 21.88 12.52 21.7 12.7C21.52 12.88 21.27 13 21 13C20.36 13 19.69 13.22 19.23 13.6C18.91 13.86 18.65 14.21 18.48 14.59C18.22 15.17 18.19 15.8 18.35 16.37C18.47 16.8 18.69 17.19 19.01 17.51C19.2 17.7 19.37 18.03 19.37 18.29C19.37 18.55 19.27 18.8 19.08 19C18.88 19.19 18.63 19.29 18.37 19.29C18.11 19.29 17.86 19.19 17.66 19C17.2 18.55 16.56 18.24 15.97 18.19C15.53 18.15 15.09 18.22 14.68 18.4C14.1 18.65 13.65 19.08 13.38 19.6C13.18 19.98 13.08 20.39 13.07 20.82L13.07 21C13.07 21.27 12.96 21.52 12.78 21.7C12.6 21.89 12.35 22 12.08 22C11.8 22 11.55 21.88 11.37 21.7C11.19 21.52 11.08 21.27 11.08 21C11.06 20.34 10.82 19.66 10.43 19.21C10.15 18.89 9.78 18.63 9.37 18.47C8.8 18.22 8.18 18.2 7.62 18.35C7.19 18.47 6.8 18.69 6.48 19.01C6.28 19.2 5.96 19.37 5.7 19.37C5.44 19.37 5.19 19.27 4.99 19.08C4.8 18.88 4.7 18.63 4.7 18.37C4.7 18.11 4.8 17.86 4.99 17.66C5.44 17.2 5.75 16.56 5.8 15.97C5.84 15.53 5.77 15.09 5.59 14.68C5.34 14.1 4.91 13.65 4.39 13.38C4.02 13.18 3.6 13.08 3.17 13.07L3 13.08C2.72 13.08 2.47 12.96 2.29 12.78C2.11 12.6 2 12.35 2 12.08C2 11.8 2.11 11.55 2.29 11.37C2.47 11.19 2.72 11.08 3 11.08C3.65 11.06 4.33 10.82 4.78 10.43C5.1 10.15 5.36 9.79 5.52 9.37C5.77 8.8 5.79 8.18 5.64 7.62C5.52 7.19 5.3 6.8 4.98 6.48C4.79 6.29 4.62 5.96 4.62 5.7C4.62 5.44 4.71 5.19 4.91 4.99C5.11 4.8 5.36 4.7 5.62 4.7C5.88 4.7 6.13 4.8 6.33 4.99C6.79 5.44 7.43 5.75 8.02 5.8C8.39 5.84 8.76 5.79 9.12 5.67C9.22 5.66 9.31 5.63 9.39 5.6C9.18 5.61 9 5.64 8.91 5.68C8.96 5.68 9.08 5.67 9.12 5.67C9.18 5.65 9.33 5.62 9.39 5.6C9.97 5.35 10.42 4.91 10.69 4.39C10.89 4.02 10.99 3.6 11 3.18L11 3C11 2.72 11.11 2.47 11.29 2.29C11.47 2.11 11.72 2 12 2C12.27 2 12.52 2.11 12.7 2.29C12.88 2.47 13 2.72 13 3C13 3.63 13.22 4.31 13.6 4.76C13.86 5.08 14.21 5.34 14.59 5.51C15.17 5.77 15.8 5.8 16.37 5.64C16.79 5.52 17.19 5.3 17.51 4.98C17.7 4.79 18.03 4.62 18.29 4.62C18.54 4.62 18.8 4.71 19 4.91C19.19 5.11 19.29 5.36 19.29 5.62C19.29 5.88 19.19 6.13 19 6.33C18.54 6.79 18.24 7.43 18.19 8.02C18.15 8.39 18.2 8.76 18.32 9.12C18.34 9.22 18.36 9.22 18.39 9.3Z" fill="#000000" fill-opacity="1.000000" fill-rule="nonzero"/>
	</g>
</svg>
